<svg width="30" height="30" viewBox="0 0 30 30" fill="none" xmlns="http://www.w3.org/2000/svg">
<rect width="30" height="30" rx="15" fill="#FFAB1E"/>
<path d="M15 30C23.2843 30 30 23.2843 30 15C30 6.71573 23.2843 0 15 0C6.71573 0 0 6.71573 0 15C0 23.2843 6.71573 30 15 30Z" fill="white"/>
<g clip-path="url(#clip0_4247_28056)">
<path d="M11.1158 13.4041L15 9.51998L18.8859 13.4058L21.1459 11.1458L15 5L8.85598 11.144L11.1159 13.404L11.1158 13.4041ZM5 15L7.26007 12.7396L9.51998 14.9995L7.25991 17.2596L5 15ZM11.1158 16.596L15 20.4799L18.8859 16.5942L21.1471 18.853L21.1459 18.8542L15 24.9999L8.85598 18.8559L8.85278 18.8527L11.1161 16.5958L11.1158 16.596ZM20.4799 15.0009L22.74 12.7408L24.9999 15.0008L22.7399 17.2608L20.4799 15.0009Z" fill="#FFAB1E"/>
<path d="M17.2922 14.9988H17.2931L15 12.7055L13.3051 14.4L13.1104 14.5948L12.7088 14.9964L12.7056 14.9996L12.7088 15.0028L15 17.2944L17.2933 15.0012L17.2944 14.9999L17.2923 14.9988" fill="#FFAB1E"/>
</g>
<defs>
<clipPath id="clip0_4247_28056">
<rect width="20" height="19.9999" fill="white" transform="translate(5 5)"/>
</clipPath>
</defs>
</svg>
