<?xml version="1.0" standalone="no"?><!DOCTYPE svg PUBLIC "-//W3C//DTD SVG 1.1//EN" "http://www.w3.org/Graphics/SVG/1.1/DTD/svg11.dtd"><svg t="1710862837821" class="icon" viewBox="0 0 1024 1024" version="1.1" xmlns="http://www.w3.org/2000/svg" p-id="3842" xmlns:xlink="http://www.w3.org/1999/xlink" width="26" height="26"><path d="M512.2048 512.0512m-500.6336 0a500.6336 500.6336 0 1 0 1001.2672 0 500.6336 500.6336 0 1 0-1001.2672 0Z" fill="#FFFFFF" p-id="3843"></path><path d="M211.2512 483.072c0-23.4496 19.2-42.6496 42.6496-42.6496h71.4752c23.5008 0 42.7008 19.2 42.7008 42.6496l1.024 270.9504c8.5504-2.1504 18.176-5.3248 29.9008-7.4752a36.5056 36.5056 0 0 0 27.7504-35.1744L425.6768 375.296c0-23.5008 19.2-42.7008 42.6496-42.7008h71.4752c23.4496 0 42.7008 19.2 42.7008 42.7008l1.024 311.4496s18.176-7.424 35.2256-14.8992c12.8-5.3248 22.3744-19.2 21.3504-33.0752l-1.0752-371.2c0-23.5008 19.2-42.7008 42.6496-42.7008h71.4752c23.4496 0 42.6496 19.2 42.6496 42.6496l1.0752 306.176c61.9008-44.8 124.8256-99.2256 174.9504-165.376a69.632 69.632 0 0 0 10.7008-67.1744C892.928 75.5712 603.8016-63.0784 339.2512 29.696 75.776 121.4464-63.9488 411.648 28.8256 675.072c10.7008 29.9008 23.5008 58.6752 39.4752 86.4256 12.8 21.3504 36.3008 34.1504 60.8256 32 13.824-1.024 30.9248-3.2256 50.1248-5.3248a35.7376 35.7376 0 0 0 32-35.2256V483.072" fill="#12161C" p-id="3844"></path><path d="M210.176 917.248c227.2256 164.2496 544.0512 113.0496 708.3008-113.1008a498.9952 498.9952 0 0 0 96.0512-298.6496c0-11.776-1.0752-23.5008-1.0752-35.2256-184.576 277.3504-525.9264 407.5008-803.2768 446.976" fill="#F0B90B" p-id="3845"></path></svg>