<?xml version="1.0" standalone="no"?><!DOCTYPE svg PUBLIC "-//W3C//DTD SVG 1.1//EN" "http://www.w3.org/Graphics/SVG/1.1/DTD/svg11.dtd"><svg t="1710862890306" class="icon" viewBox="0 0 1024 1024" version="1.1" xmlns="http://www.w3.org/2000/svg" p-id="5640" xmlns:xlink="http://www.w3.org/1999/xlink" width="26" height="26"><path d="M512 0c282.784 0 512 229.216 512 512s-229.216 512-512 512S0 794.784 0 512 229.216 0 512 0z m106.56 320c-54.112-0.896-97.952 44.832-97.952 102.08 0 8.16 0.832 16.064 2.528 23.68-81.472-5.248-153.632-47.648-201.92-111.552a108.48 108.48 0 0 0-13.28 52.384c0 36.288 17.28 68.512 43.584 87.552a93.696 93.696 0 0 1-44.384-13.6v1.344c0 50.688 33.792 93.184 78.592 103.072a92.544 92.544 0 0 1-44.192 1.504c12.448 41.536 48.64 71.904 91.488 72.928A189.12 189.12 0 0 1 288 682.176a264.224 264.224 0 0 0 150.176 47.072c180.128 0.032 278.624-156.736 278.624-292.768 0-4.48-0.096-8.896-0.32-13.28a201.28 201.28 0 0 0 48.928-52.576c-17.856 8.032-36.832 13.216-56.288 15.392a100.512 100.512 0 0 0 43.104-56.256 188.256 188.256 0 0 1-62.176 24A97.44 97.44 0 0 0 618.528 320z" fill="#1DA1F3" p-id="5641"></path></svg>